<?xml version="1.0" encoding="UTF-8" standalone="no"?>
<svg
   xmlns:dc="http://purl.org/dc/elements/1.1/"
   xmlns:cc="http://creativecommons.org/ns#"
   xmlns:rdf="http://www.w3.org/1999/02/22-rdf-syntax-ns#"
   xmlns:svg="http://www.w3.org/2000/svg"
   xmlns="http://www.w3.org/2000/svg"
   viewBox="0 0 266.66666 266.66666"
   height="266.66666"
   width="266.66666"
   xml:space="preserve"
   id="svg2"
   version="1.1"><metadata
     id="metadata8"><rdf:RDF><cc:Work
         rdf:about=""><dc:format>image/svg+xml</dc:format><dc:type
           rdf:resource="http://purl.org/dc/dcmitype/StillImage" /></cc:Work></rdf:RDF></metadata><defs
     id="defs6" /><g
     transform="matrix(1.3333333,0,0,-1.3333333,0,266.66667)"
     id="g10"><g
       transform="scale(0.1)"
       id="g12"><path
         id="path14"
         style="fill:#131112;fill-opacity:1;fill-rule:nonzero;stroke:none"
         d="m 89.0195,656.289 c -16.7539,0 -32.3633,10.602 -37.9453,27.371 C 17.1836,785.41 0,891.852 0,1000.01 c 0,96.08 13.5859,191.02 40.3711,282.21 6.2266,21.2 28.4492,33.33 49.6523,27.1 21.1996,-6.22 33.3316,-28.45 27.1056,-49.65 C 92.4883,1175.81 80,1088.45 80,1000.01 c 0,-99.549 15.8047,-197.49 46.973,-291.069 6.98,-20.961 -4.352,-43.613 -25.309,-50.589 -4.1913,-1.403 -8.457,-2.063 -12.6445,-2.063" /><path
         id="path16"
         style="fill:#131112;fill-opacity:1;fill-rule:nonzero;stroke:none"
         d="m 136.379,1379.8 c -5.883,0 -11.848,1.31 -17.488,4.05 -19.8637,9.68 -28.1176,33.62 -18.446,53.48 167.016,342.87 507.403,558.47 888.332,562.67 0.149,0.01 0.301,0.01 0.453,0.01 21.88,0 39.74,-17.62 39.99,-39.56 0.24,-22.09 -17.47,-40.2 -39.564,-40.44 -350.453,-3.87 -663.621,-202.24 -817.289,-517.71 -6.929,-14.23 -21.172,-22.5 -35.988,-22.5" /><path
         id="path18"
         style="fill:#131112;fill-opacity:1;fill-rule:nonzero;stroke:none"
         d="m 1959.98,987.43 c -21.57,0 -39.35,17.18 -39.96,38.88 -12.42,443.31 -339.36,814.55 -777.38,882.73 -21.83,3.4 -36.77,23.85 -33.37,45.68 3.39,21.82 23.76,36.76 45.67,33.37 476.15,-74.11 831.54,-477.66 845.04,-959.54 0.63,-22.08 -16.78,-40.48 -38.86,-41.101 -0.38,-0.008 -0.76,-0.019 -1.14,-0.019" /><path
         id="path20"
         style="fill:#131112;fill-opacity:1;fill-rule:nonzero;stroke:none"
         d="m 888.414,6.60156 c -5.66,0 -11.402,1.19922 -16.867,3.75004 -20.024,9.3281 -28.695,33.1289 -19.367,53.1484 19.402,41.66 37.422,85.469 53.55,130.199 7.497,20.781 30.43,31.571 51.2,24.051 20.781,-7.488 31.55,-30.41 24.054,-51.199 C 964.047,119.582 945.105,73.5508 924.695,29.7305 917.914,15.1719 903.48,6.60156 888.414,6.60156" /><path
         id="path22"
         style="fill:#131112;fill-opacity:1;fill-rule:nonzero;stroke:none"
         d="m 990.266,293.672 c -3.235,0 -6.512,0.387 -9.786,1.219 -21.425,5.379 -34.425,27.121 -29.039,48.55 10.184,40.5 18.625,81.289 25.086,121.239 44.693,276.269 -14.757,523.289 -15.367,525.75 -5.269,21.45 7.824,43.12 29.266,48.4 21.474,5.3 43.114,-7.79 48.404,-29.22 2.63,-10.669 64.07,-264.7 16.67,-557.712 -6.82,-42.187 -15.73,-85.257 -26.48,-127.968 -4.56,-18.149 -20.86,-30.258 -38.754,-30.258" /><path
         id="path24"
         style="fill:#131112;fill-opacity:1;fill-rule:nonzero;stroke:none"
         d="m 1061.47,0 c -4.89,0 -9.87,0.898438 -14.69,2.80859 -20.55,8.13281 -30.62,31.36331 -22.49,51.91021 29.02,73.4222 82.21,224.3322 112.24,409.9612 2.81,17.191 5.25,34.91 7.28,52.75 2.51,21.949 22.29,37.718 44.28,35.218 21.94,-2.507 37.71,-22.328 35.21,-44.277 -2.18,-19.101 -4.8,-38.133 -7.8,-56.512 C 1184.27,258.832 1128.91,101.75 1098.68,25.3008 1092.47,9.58984 1077.4,0 1061.47,0" /><path
         id="path26"
         style="fill:#131112;fill-opacity:1;fill-rule:nonzero;stroke:none"
         d="m 723.363,40.6602 c -6.097,0 -12.289,1.3984 -18.097,4.3593 -19.692,10.0196 -27.536,34.0899 -17.524,53.7891 41.778,82.1404 97.16,212.2224 123.746,365.4214 26.563,153.258 23.684,326.25 -8.328,500.258 -2.109,11.801 -3.16,23.684 -3.16,35.522 0,110.28 89.723,200 200,200 93.56,0 173.66,-63.57 194.79,-154.59 1.58,-6.85 38.34,-168.69 37.75,-373.029 -0.07,-22.051 -17.96,-39.879 -40,-39.879 -0.04,0 -0.08,0 -0.12,0 -22.09,0.07 -39.95,18.027 -39.88,40.117 0.57,195.199 -35.33,353.191 -35.69,354.761 -12.66,54.51 -60.71,92.62 -116.85,92.62 -66.168,0 -120,-53.83 -120,-120 0,-7.131 0.629,-14.28 1.875,-21.24 33.668,-183.008 36.598,-365.731 8.437,-528.2 C 862.02,287.551 803.32,149.582 759.055,62.5391 751.992,48.6602 737.938,40.6602 723.363,40.6602" /><path
         id="path28"
         style="fill:#131112;fill-opacity:1;fill-rule:nonzero;stroke:none"
         d="m 1824.73,468.129 c -0.76,0 -1.51,0.019 -2.26,0.062 -22.05,1.219 -38.94,20.098 -37.72,42.161 3.63,65.457 4.83,133.218 3.58,201.429 -0.41,22.078 17.17,40.321 39.26,40.719 0.24,0.012 0.5,0.012 0.74,0.012 21.76,0 39.58,-17.422 39.98,-39.274 1.29,-70.148 0.05,-139.898 -3.68,-207.316 -1.18,-21.301 -18.83,-37.793 -39.9,-37.793" /><path
         id="path30"
         style="fill:#131112;fill-opacity:1;fill-rule:nonzero;stroke:none"
         d="m 1821.02,832.629 c -20.79,0 -38.34,16.062 -39.86,37.121 -10.12,140.25 -26.96,232.05 -27.13,232.96 l -0.29,1.76 c -52.21,373.73 -376.25,655.54 -753.74,655.54 -103.438,0 -203.746,-20.41 -298.141,-60.66 -20.336,-8.65 -43.824,0.79 -52.48,21.1 -8.664,20.32 0.781,43.82 21.105,52.48 104.371,44.51 215.235,67.08 329.516,67.08 416.88,0 774.79,-311.01 832.85,-723.61 1.94,-10.66 18.06,-101.75 28.1,-240.888 1.59,-22.032 -14.98,-41.192 -37.01,-42.782 -0.98,-0.07 -1.96,-0.101 -2.92,-0.101" /><path
         id="path32"
         style="fill:#131112;fill-opacity:1;fill-rule:nonzero;stroke:none"
         d="m 197.02,433.711 c -4.856,0 -9.793,0.891 -14.586,2.769 -20.571,8.059 -30.704,31.27 -22.645,51.84 9.375,23.918 16.949,48.149 22.5,72.008 21.551,92.641 2.621,227.192 -10.578,299.141 -7.805,46.57 -11.711,93.652 -11.711,140.541 0,276.56 136.191,535.42 364.312,692.44 18.204,12.51 43.11,7.92 55.629,-10.27 12.524,-18.2 7.93,-43.1 -10.269,-55.63 C 363.242,1484.46 240,1250.23 240,1000.01 c 0,-42.479 3.535,-85.112 10.504,-126.709 14.215,-77.461 34.535,-224.352 9.707,-331.102 -6.434,-27.617 -15.156,-55.57 -25.938,-83.078 -6.183,-15.769 -21.277,-25.41 -37.253,-25.41" /><path
         id="path34"
         style="fill:#131112;fill-opacity:1;fill-rule:nonzero;stroke:none"
         d="m 309.07,292.969 c -5.886,0 -11.863,1.312 -17.511,4.062 -19.856,9.688 -28.09,33.629 -18.407,53.489 30.457,62.41 51.828,126.339 63.524,190 18.945,103.039 16.129,219.082 -8.606,354.73 l -0.183,1.121 C 322.652,930.48 320,965.352 320,1000.01 c 0,374.95 305.051,680 680,680 57.32,0 114.24,-7.14 169.15,-21.22 21.4,-5.48 34.3,-27.27 28.82,-48.67 -5.5,-21.4 -27.33,-34.3 -48.68,-28.82 -48.43,12.41 -98.66,18.71 -149.29,18.71 -330.84,0 -600,-269.16 -600,-600 0,-30.428 2.312,-61.041 6.879,-90.979 26.402,-145.101 29.176,-270.39 8.476,-382.98 -13.007,-70.813 -36.664,-141.672 -70.304,-210.61 -6.938,-14.211 -21.168,-22.472 -35.981,-22.472" /><path
         id="path36"
         style="fill:#131112;fill-opacity:1;fill-rule:nonzero;stroke:none"
         d="m 1638.13,243.129 c -2.24,0 -4.52,0.191 -6.81,0.582 -21.77,3.738 -36.4,24.418 -32.66,46.187 5.74,33.473 10.81,67.473 15.05,101.071 45.24,358.261 -19.52,694.361 -20.18,697.721 l -0.31,1.75 c -27.72,183.42 -141.76,346.4 -305.08,435.99 -19.36,10.62 -26.45,34.93 -15.83,54.3 10.63,19.36 34.95,26.46 54.31,15.83 184.79,-101.35 313.92,-285.73 345.58,-493.3 4.62,-23.8 67.07,-356.549 20.89,-722.319 -4.4,-34.761 -9.64,-69.929 -15.58,-104.57 -3.34,-19.492 -20.25,-33.242 -39.38,-33.242" /><path
         id="path38"
         style="fill:#131112;fill-opacity:1;fill-rule:nonzero;stroke:none"
         d="m 1441.44,107.461 c -3.35,0 -6.75,0.418 -10.14,1.309 -21.37,5.582 -34.18,27.429 -28.59,48.812 29.12,111.547 49.35,224.156 60.13,334.68 23,235.136 -4.66,454.418 -31.89,596.958 -3.44,16.79 -8.08,34.02 -13.67,50.72 -7.04,20.95 4.25,43.63 25.19,50.65 20.94,7 43.62,-4.25 50.65,-25.2 6.64,-19.78 12.11,-40.18 16.3,-60.65 28.33,-148.209 56.97,-375.631 33.05,-620.271 -11.2,-114.68 -32.18,-231.469 -62.36,-347.11 -4.7,-17.98 -20.91,-29.898 -38.67,-29.898" /><path
         id="path40"
         style="fill:#131112;fill-opacity:1;fill-rule:nonzero;stroke:none"
         d="m 543.367,539.809 c -1.433,0 -2.887,0.082 -4.347,0.242 -21.965,2.371 -37.844,22.109 -35.465,44.07 18.808,173.828 -12.985,311.508 -13.305,312.867 l -0.309,1.422 c -6.597,33.281 -9.941,67.469 -9.941,101.6 0,286.73 233.27,520 520,520 161.56,0 311.19,-73.19 410.51,-200.78 13.57,-17.43 10.44,-42.57 -6.99,-56.13 -17.45,-13.58 -42.57,-10.44 -56.14,6.99 -84.06,107.98 -210.67,169.92 -347.38,169.92 -242.617,0 -440,-197.38 -440,-440 0,-28.709 2.789,-57.451 8.297,-85.428 3.019,-13.172 34.519,-156.742 14.789,-339.07 -2.219,-20.5 -19.555,-35.703 -39.719,-35.703" /><path
         id="path42"
         style="fill:#131112;fill-opacity:1;fill-rule:nonzero;stroke:none"
         d="m 434.027,183.75 c -6.168,0 -12.422,1.441 -18.281,4.449 -19.637,10.11 -27.355,34.231 -17.246,53.871 32.551,63.2 58.137,127.52 76.043,191.16 5.984,21.258 28.07,33.629 49.34,27.668 21.262,-5.988 33.652,-28.078 27.672,-49.347 -19.364,-68.789 -46.926,-138.129 -81.93,-206.102 -7.098,-13.777 -21.094,-21.699 -35.598,-21.699" /><path
         id="path44"
         style="fill:#131112;fill-opacity:1;fill-rule:nonzero;stroke:none"
         d="m 1249.49,32.2305 c -4.27,0 -8.6,0.6797 -12.87,2.1406 -20.92,7.0977 -32.11,29.8203 -25,50.7383 31.16,91.7426 72.24,236.4106 90.89,404.6916 28.17,255.121 -10.35,482.168 -28.23,567.949 -26.58,128.82 -141.93,222.26 -274.28,222.26 -33.125,0 -65.543,-5.72 -96.355,-17.01 -20.762,-7.61 -43.719,3.05 -51.321,23.8 -7.597,20.74 3.059,43.72 23.797,51.31 39.66,14.53 81.34,21.9 123.879,21.9 170.12,0 318.42,-120.29 352.61,-286.02 18.64,-89.439 58.85,-326.431 29.41,-592.978 -19.45,-175.461 -62.21,-326.141 -94.66,-421.6409 -5.65,-16.6523 -21.21,-27.1406 -37.87,-27.1406" /><path
         id="path46"
         style="fill:#131112;fill-opacity:1;fill-rule:nonzero;stroke:none"
         d="m 574.379,99.0195 c -6.258,0 -12.606,1.4805 -18.535,4.5825 -19.567,10.257 -27.114,34.437 -16.86,54 58.477,111.57 96.661,222.148 113.496,328.66 22.149,140.078 19.821,291.347 -6.918,449.59 -3.753,19.937 -5.562,40.558 -5.562,64.158 0,87.34 31.699,171.6 89.258,237.27 14.566,16.6 39.84,18.26 56.445,3.71 16.609,-14.56 18.277,-39.84 3.711,-56.45 C 744.652,1133.48 720,1067.94 720,1000.01 c 0,-18.78 1.328,-34.229 4.312,-50.119 C 752.629,782.371 755,622.422 731.504,473.762 713.301,358.629 672.367,239.77 609.844,120.469 602.695,106.832 588.777,99.0195 574.379,99.0195" /></g></g></svg>